<svg width="240" height="44" viewBox="0 0 240 44" fill="none" xmlns="http://www.w3.org/2000/svg">
  <!-- original mark paths (preserved) -->
  <g transform="translate(0,0)">
    <path d="M43.904 28.28C42.8773 28.28 41.9627 28.0653 41.16 27.63C40.3573 27.1947 39.6773 26.582 39.12 25.792C38.5627 25.002 38.2835 24.06 38.283 22.966C38.283 21.872 38.5627 20.9307 39.12 20.142C39.6773 19.352 40.3573 18.7393 41.16 18.304C41.9627 17.8687 42.8773 17.6527 43.904 17.656C44.9307 17.6593 45.8453 17.8753 46.648 18.304C47.4507 18.7387 48.1307 19.3513 48.688 20.142C49.2453 20.9327 49.5253 21.8733 49.526 22.964C49.5267 24.0547 49.2467 24.9973 48.688 25.792C48.1293 26.5867 47.4493 27.1993 46.648 27.63C45.846 28.0607 44.9313 28.2767 43.904 28.28Z" fill="#4F39F6"/>
    <path d="M0.0619184 21.0601L20.2432 4.00023L12.4475 34.7521L12.1408 23.8491L0.0619184 21.0601Z" fill="#4F39F6"/>
    <path d="M13.798 17.2924L27.9439 21.5243L7.23363 39.2052L7.23841 39.2095L13.798 17.2924Z" fill="#4F39F6"/>
  </g>

  <!-- new logotype -->
  <text x="68" y="30" font-family="Inter, system-ui, -apple-system, 'Segoe UI', Roboto, 'Helvetica Neue', Arial" font-size="20" font-weight="700" fill="#111827">Nexi</text>

  <!-- small accent line to match logo weight -->
  <rect x="68" y="34" width="28" height="2" rx="1" fill="#4F39F6" opacity="0.05" />
</svg>
